Coordinates
version=1
nRows=16
nColumns=38
inDegrees=no

Units are S.I. units (second, meters, Newtons, ...)
If the header above contains a line with 'inDegrees', this indicates whether rotational values are in degrees (yes) or radians (no).

endheader
time	pelvis_tilt	pelvis_list	pelvis_rotation	pelvis_tx	pelvis_ty	pelvis_tz	hip_flexion_r	hip_adduction_r	hip_rotation_r	knee_angle_r	ankle_angle_r	subtalar_angle_r	mtp_angle_r	hip_flexion_l	hip_adduction_l	hip_rotation_l	knee_angle_l	ankle_angle_l	subtalar_angle_l	mtp_angle_l	lumbar_extension	lumbar_bending	lumbar_rotation	arm_flex_r	arm_add_r	arm_rot_r	elbow_flex_r	pro_sup_r	wrist_flex_r	wrist_dev_r	arm_flex_l	arm_add_l	arm_rot_l	elbow_flex_l	pro_sup_l	wrist_flex_l	wrist_dev_l
1.64	-1.33281	1.50276	-0.253302	0.78805	-0.267053	1.05616	0.376761	-0.0294495	-0.150202	0.865045	-0.101592	0	0	-0.107277	-0.0335826	-0.312204	0.164746	-0.0525714	0	0	-0.353023	0.0287105	0.0183726	-0.154996	-0.395857	0.35715	0.674058	0.850283	0	0	0.107508	-0.500356	0.256406	0.704551	1.15979	0	0
1.65	-1.35666	1.50025	-0.219528	0.787641	-0.278494	1.05565	0.382749	-0.0276242	-0.161272	0.805973	-0.100742	0	0	-0.122402	-0.0384179	-0.313963	0.155184	-0.0518101	0	0	-0.354548	0.0346091	0.0113336	-0.152872	-0.396003	0.355845	0.6752	0.855907	0	0	0.111723	-0.503372	0.249681	0.71613	1.17123	0	0
1.66	-1.3686	1.49839	-0.197866	0.787128	-0.290014	1.05497	0.38535	-0.026433	-0.171568	0.741375	-0.103037	0	0	-0.137851	-0.042758	-0.316154	0.146023	-0.0513309	0	0	-0.35661	0.0393846	0.00432133	-0.150411	-0.395643	0.355032	0.675722	0.861188	0	0	0.115868	-0.506825	0.24288	0.728159	1.18249	0	0
1.67	-1.37551	1.49675	-0.181521	0.786502	-0.301577	1.05415	0.384279	-0.02547	-0.181141	0.671316	-0.108655	0	0	-0.152958	-0.0471704	-0.318433	0.137818	-0.0508143	0	0	-0.358848	0.0435685	-0.0023107	-0.147526	-0.394807	0.35484	0.675392	0.866544	0	0	0.120262	-0.509966	0.235424	0.739932	1.19306	0	0
1.68	-1.39838	1.49683	-0.150081	0.785719	-0.313206	1.05291	0.384665	-0.0251237	-0.185707	0.601037	-0.118563	0	0	-0.16596	-0.0501267	-0.320264	0.130915	-0.0491775	0	0	-0.359164	0.0457207	-0.00831423	-0.144859	-0.393368	0.355101	0.674113	0.871697	0	0	0.124416	-0.513541	0.229398	0.751401	1.20361	0	0
1.69	-1.42625	1.4983	-0.113701	0.784858	-0.325011	1.05129	0.38217	-0.0266065	-0.188347	0.526329	-0.13141	0	0	-0.177587	-0.0518577	-0.320709	0.126469	-0.0460629	0	0	-0.358313	0.0464278	-0.0143041	-0.14286	-0.391622	0.355613	0.672522	0.8759	0	0	0.128533	-0.517549	0.225214	0.76215	1.21251	0	0
1.7	-1.45691	1.49997	-0.0746194	0.78389	-0.336844	1.04948	0.38036	-0.0271281	-0.191645	0.44991	-0.147958	0	0	-0.188381	-0.053657	-0.31976	0.123569	-0.0424073	0	0	-0.357421	0.0467819	-0.0199747	-0.140817	-0.389623	0.356341	0.670609	0.879083	0	0	0.133094	-0.521802	0.222246	0.772437	1.21983	0	0
1.71	-1.47784	1.5021	-0.0450505	0.782776	-0.348825	1.04748	0.375395	-0.0279869	-0.19734	0.368529	-0.168242	0	0	-0.199368	-0.0553051	-0.318023	0.122331	-0.03843	0	0	-0.35715	0.046501	-0.0259789	-0.139378	-0.387346	0.356719	0.669548	0.881853	0	0	0.137282	-0.527068	0.220498	0.783322	1.22667	0	0
1.72	-1.52487	1.50593	0.00762942	0.781382	-0.360963	1.04513	0.371673	-0.0304686	-0.195337	0.293402	-0.187919	0	0	-0.208379	-0.054617	-0.317751	0.122682	-0.0344909	0	0	-0.354789	0.0435458	-0.0295838	-0.138436	-0.384733	0.357433	0.6679	0.883933	0	0	0.141248	-0.532282	0.220115	0.793031	1.23422	0	0
1.73	-1.59509	1.51083	0.0808317	0.779787	-0.373258	1.04262	0.369142	-0.0336902	-0.183598	0.224558	-0.204476	0	0	-0.216246	-0.0520337	-0.318154	0.124432	-0.0305482	0	0	-0.351063	0.0386116	-0.0310556	-0.137661	-0.382112	0.359109	0.665595	0.885095	0	0	0.144859	-0.536609	0.220073	0.801389	1.24145	0	0
1.74	-1.66766	1.51623	0.155641	0.778139	-0.385684	1.04006	0.367216	-0.0379041	-0.168923	0.164659	-0.215846	0	0	-0.224287	-0.0486223	-0.318343	0.127814	-0.0256888	0	0	-0.347826	0.0329545	-0.0323154	-0.137132	-0.379775	0.360992	0.664174	0.885807	0	0	0.147636	-0.540665	0.219562	0.809769	1.24571	0	0
1.75	-1.73684	1.52163	0.226692	0.776458	-0.398262	1.03751	0.365706	-0.0423877	-0.155736	0.114633	-0.220916	0	0	-0.232833	-0.0452577	-0.318342	0.132742	-0.0208365	0	0	-0.345669	0.0274948	-0.0329879	-0.136998	-0.377934	0.363026	0.663626	0.886947	0	0	0.150601	-0.544336	0.219926	0.817122	1.24775	0	0
1.76	-1.80485	1.5268	0.296373	0.774726	-0.411028	1.03501	0.364026	-0.0466182	-0.144877	0.0732741	-0.220923	0	0	-0.241537	-0.0423774	-0.317724	0.139302	-0.0170048	0	0	-0.344381	0.0225248	-0.0329621	-0.137603	-0.376232	0.364293	0.663969	0.887512	0	0	0.153912	-0.547772	0.221846	0.823406	1.24972	0	0
1.77	-1.86651	1.53167	0.35974	0.773	-0.424016	1.03267	0.362063	-0.0503688	-0.137044	0.041615	-0.217119	0	0	-0.249678	-0.0402782	-0.317699	0.148725	-0.013786	0	0	-0.343899	0.0185558	-0.0326634	-0.138922	-0.374413	0.364187	0.664848	0.886411	0	0	0.15721	-0.551056	0.225869	0.828552	1.25214	0	0
1.78	-1.91317	1.53622	0.407958	0.771274	-0.43724	1.03056	0.358949	-0.0530218	-0.130513	0.0188946	-0.211022	0	0	-0.257541	-0.0389251	-0.317769	0.160473	-0.0102512	0	0	-0.344257	0.0154193	-0.0320798	-0.139768	-0.372771	0.365797	0.664856	0.886178	0	0	0.160319	-0.553822	0.230557	0.832537	1.25517	0	0
1.79	-1.9356	1.54037	0.432545	0.769619	-0.450671	1.02874	0.355156	-0.0547502	-0.126364	0.0057217	-0.204127	0	0	-0.265291	-0.0385925	-0.316611	0.1739	-0.00728952	0	0	-0.345461	0.0134691	-0.0317831	-0.140171	-0.371058	0.368204	0.66399	0.885477	0	0	0.163417	-0.555297	0.234697	0.834748	1.25855	0	0
